REM DIRINDEX 1\5,1\2\6,1\2\7,1\3\8,1\3\9,1\4\10,1\4\11,1\4\12
REM DIRNAME cjc026,folder01,folder02,folder03,folder04,folder05,folder06,folder07,folder08,folder09,folder10,folder11
TITLE ""
FILE "EJE_DB3000_5th_2A_38.mp3" MP3
  TRACK 01 AUDIO
    TITLE "0:"
    INDEX 01 00:00:00
  TRACK 02 AUDIO
    TITLE "10:cjc026_07902"
    INDEX 01 00:00:08
  TRACK 03 AUDIO
    TITLE "0:"
    INDEX 01 00:01:33
  TRACK 04 AUDIO
    TITLE "11:cjc026_07903"
    INDEX 01 00:01:68
  TRACK 05 AUDIO
    TITLE "0:"
    INDEX 01 00:03:01
  TRACK 06 AUDIO
    TITLE "12:cjc026_07904"
    INDEX 01 00:03:39
  TRACK 07 AUDIO
    TITLE "0:"
    INDEX 01 00:04:64
  TRACK 08 AUDIO
    TITLE "10:cjc026_07905"
    INDEX 01 00:05:24
  TRACK 09 AUDIO
    TITLE "0:"
    INDEX 01 00:06:49
  TRACK 10 AUDIO
    TITLE "11:cjc026_07906"
    INDEX 01 00:07:09
  TRACK 11 AUDIO
    TITLE "0:"
    INDEX 01 00:08:56
  TRACK 12 AUDIO
    TITLE "12:cjc026_07907"
    INDEX 01 00:09:16
  TRACK 13 AUDIO
    TITLE "0:"
    INDEX 01 00:10:41
  TRACK 14 AUDIO
    TITLE "10:cjc026_07908"
    INDEX 01 00:11:01
  TRACK 15 AUDIO
    TITLE "0:"
    INDEX 01 00:13:37
  TRACK 16 AUDIO
    TITLE "11:cjc026_07909"
    INDEX 01 00:13:72
  TRACK 17 AUDIO
    TITLE "0:"
    INDEX 01 00:15:22
  TRACK 18 AUDIO
    TITLE "12:cjc026_07910"
    INDEX 01 00:15:57
  TRACK 19 AUDIO
    TITLE "0:"
    INDEX 01 00:18:18
  TRACK 20 AUDIO
    TITLE "10:cjc026_07911"
    INDEX 01 00:18:59
  TRACK 21 AUDIO
    TITLE "0:"
    INDEX 01 00:20:06
  TRACK 22 AUDIO
    TITLE "11:cjc026_07912"
    INDEX 01 00:20:41
  TRACK 23 AUDIO
    TITLE "0:"
    INDEX 01 00:21:69
  TRACK 24 AUDIO
    TITLE "12:cjc026_07913"
    INDEX 01 00:22:29
  TRACK 25 AUDIO
    TITLE "0:"
    INDEX 01 00:23:51
  TRACK 26 AUDIO
    TITLE "10:cjc026_07914"
    INDEX 01 00:24:11
  TRACK 27 AUDIO
    TITLE "0:"
    INDEX 01 00:25:23
  TRACK 28 AUDIO
    TITLE "11:cjc026_07915"
    INDEX 01 00:25:60
  TRACK 29 AUDIO
    TITLE "0:"
    INDEX 01 00:27:05
  TRACK 30 AUDIO
    TITLE "12:cjc026_07916"
    INDEX 01 00:27:45
  TRACK 31 AUDIO
    TITLE "0:"
    INDEX 01 00:28:60
  TRACK 32 AUDIO
    TITLE "10:cjc026_07917"
    INDEX 01 00:29:20
  TRACK 33 AUDIO
    TITLE "0:"
    INDEX 01 00:30:42
  TRACK 34 AUDIO
    TITLE "11:cjc026_07918"
    INDEX 01 00:31:02
  TRACK 35 AUDIO
    TITLE "0:"
    INDEX 01 00:32:21
  TRACK 36 AUDIO
    TITLE "12:cjc026_07919"
    INDEX 01 00:32:59
  TRACK 37 AUDIO
    TITLE "0:"
    INDEX 01 00:34:06
  TRACK 38 AUDIO
    TITLE "10:cjc026_07920"
    INDEX 01 00:34:42
  TRACK 39 AUDIO
    TITLE "0:"
    INDEX 01 00:35:61
  TRACK 40 AUDIO
    TITLE "11:cjc026_07921"
    INDEX 01 00:36:21
  TRACK 41 AUDIO
    TITLE "0:"
    INDEX 01 00:37:57
  TRACK 42 AUDIO
    TITLE "12:cjc026_07922"
    INDEX 01 00:38:17
  TRACK 43 AUDIO
    TITLE "0:"
    INDEX 01 00:39:39
  TRACK 44 AUDIO
    TITLE "10:cjc026_07923"
    INDEX 01 00:39:74
  TRACK 45 AUDIO
    TITLE "0:"
    INDEX 01 00:41:21
  TRACK 46 AUDIO
    TITLE "11:cjc026_07924"
    INDEX 01 00:41:59
  TRACK 47 AUDIO
    TITLE "0:"
    INDEX 01 00:43:09
  TRACK 48 AUDIO
    TITLE "12:cjc026_07925"
    INDEX 01 00:43:44
  TRACK 49 AUDIO
    TITLE "0:"
    INDEX 01 00:44:66
  TRACK 50 AUDIO
    TITLE "10:cjc026_07926"
    INDEX 01 00:45:29
  TRACK 51 AUDIO
    TITLE "0:"
    INDEX 01 00:46:62
  TRACK 52 AUDIO
    TITLE "11:cjc026_07927"
    INDEX 01 00:47:22
  TRACK 53 AUDIO
    TITLE "0:"
    INDEX 01 00:48:31
  TRACK 54 AUDIO
    TITLE "12:cjc026_07928"
    INDEX 01 00:48:66
  TRACK 55 AUDIO
    TITLE "0:"
    INDEX 01 00:50:24
  TRACK 56 AUDIO
    TITLE "10:cjc026_07929"
    INDEX 01 00:50:59
  TRACK 57 AUDIO
    TITLE "0:"
    INDEX 01 00:51:73
  TRACK 58 AUDIO
    TITLE "11:cjc026_07930"
    INDEX 01 00:52:36
  TRACK 59 AUDIO
    TITLE "0:"
    INDEX 01 00:53:56
  TRACK 60 AUDIO
    TITLE "12:cjc026_07931"
    INDEX 01 00:54:16
  TRACK 61 AUDIO
    TITLE "0:"
    INDEX 01 00:55:33
  TRACK 62 AUDIO
    TITLE "10:cjc026_07932"
    INDEX 01 00:55:68
  TRACK 63 AUDIO
    TITLE "0:"
    INDEX 01 00:57:12
  TRACK 64 AUDIO
    TITLE "11:cjc026_07933"
    INDEX 01 00:57:50
  TRACK 65 AUDIO
    TITLE "0:"
    INDEX 01 00:59:05
  TRACK 66 AUDIO
    TITLE "12:cjc026_07934"
    INDEX 01 00:59:40
  TRACK 67 AUDIO
    TITLE "0:"
    INDEX 01 01:00:57
  TRACK 68 AUDIO
    TITLE "10:cjc026_07935"
    INDEX 01 01:01:17
  TRACK 69 AUDIO
    TITLE "0:"
    INDEX 01 01:02:34
  TRACK 70 AUDIO
    TITLE "11:cjc026_07936"
    INDEX 01 01:02:72
  TRACK 71 AUDIO
    TITLE "0:"
    INDEX 01 01:04:11
  TRACK 72 AUDIO
    TITLE "12:cjc026_07937"
    INDEX 01 01:04:46
  TRACK 73 AUDIO
    TITLE "0:"
    INDEX 01 01:05:63
